# xmcd CD database file
#
# Track frame offsets:
#	150
#	20604
#	37052
#	62293
#	72567
#	86709
#	115089
#	133064
#	150074
#	176173
#	200669
#	216690
#
# Disc length: 3184 seconds
#
# Revision: 1
# Processed by: cddbd v1.5.2PL0 Copyright (c) Steve Scherf et al.
# Submitted via: CDex 1.51
#
DISCID=b00c6e0c
DTITLE=Various Artist - Obliqsound - New Horizons 2007
DYEAR=2007
DGENRE=Jazz
TTITLE0=Lionel Loueke - Rossignol
TTITLE1=Andy Milne and Gregoire Maret Duo - Follow Me
TTITLE2=Tonolo, Goldstein, Swallow and Motian - Your Song
TTITLE3=Aisha Duo - Childen's Song No. 1
TTITLE4=Tales In Tones Trio - Sabari
TTITLE5=Renovation Unlimited - Stella By Starlight
TTITLE6=Luigo Bonafede and Pietro Tonolo - Risveglio
TTITLE7=Gilfema - Tinmin
TTITLE8=Grand Pianoramax - The Walk
TTITLE9=Bebo Ferra and Paolino Della Porta - 57 37
TTITLE10=Flügelschlag! - Lustige Bahnfahrt nach Jinan
TTITLE11=Renovation Unlimited - Antonata
EXTD=YEAR: 2007
EXTT0=
EXTT1=
EXTT2=
EXTT3=
EXTT4=
EXTT5=
EXTT6=
EXTT7=
EXTT8=
EXTT9=
EXTT10=
EXTT11=
PLAYORDER=
